<svg width="20" height="20" viewBox="0 0 20 20" fill="none" xmlns="http://www.w3.org/2000/svg">
<path d="M15.3333 1.53333C13.7667 0.566667 11.9667 0 10 0V1.53333H15.3333Z" fill="#ED4C5C"/>
<path d="M10 3.06666H17.2C16.6333 2.49999 16 1.96667 15.3333 1.53333H10V3.06666Z" fill="white"/>
<path d="M10 4.60001H18.4333C18.0667 4.03334 17.6667 3.53334 17.2333 3.06667L10 3.06666V4.60001Z" fill="#ED4C5C"/>
<path d="M10 6.13333H19.2333C19 5.6 18.7333 5.06667 18.4333 4.60001H10V6.13333Z" fill="white"/>
<path d="M10 7.66668H19.7333C19.6 7.13334 19.4333 6.63333 19.2333 6.13333H10V7.66668Z" fill="#ED4C5C"/>
<path d="M10 9.23333H19.9667C19.9333 8.69999 19.8333 8.19999 19.7333 7.69999H10V9.23333Z" fill="white"/>
<path d="M19.9667 9.23333H10V10H0C0 10.2667 -3.22859e-08 10.5 0.0333333 10.7667H19.9667C20 10.5 20 10.2667 20 10C20 9.73334 20 9.46666 19.9667 9.23333Z" fill="#ED4C5C"/>
<path d="M0.266659 12.3H19.7333C19.8667 11.8 19.9333 11.3 19.9667 10.7667H0.0333333C0.0666666 11.2667 0.133325 11.8 0.266659 12.3Z" fill="white"/>
<path d="M0.766663 13.8333H19.2333C19.4333 13.3333 19.6 12.8333 19.7333 12.3H0.266659C0.399992 12.8333 0.566663 13.3333 0.766663 13.8333Z" fill="#ED4C5C"/>
<path d="M1.56666 15.3667H18.4333C18.7333 14.8667 19 14.3667 19.2333 13.8333H0.766663C0.999996 14.3667 1.26666 14.8667 1.56666 15.3667Z" fill="white"/>
<path d="M2.76667 16.9H17.2333C17.6667 16.4333 18.1 15.9 18.4333 15.3667H1.56666C1.9 15.9333 2.33334 16.4333 2.76667 16.9Z" fill="#ED4C5C"/>
<path d="M4.63333 18.4333H15.3667C16.0667 18 16.6667 17.4667 17.2333 16.9H2.76667C3.33334 17.5 3.96666 18 4.63333 18.4333Z" fill="white"/>
<path d="M10 20C11.9667 20 13.8 19.4333 15.3667 18.4333H4.63333C6.2 19.4333 8.03334 20 10 20Z" fill="#ED4C5C"/>
<path d="M4.66667 1.53333C3.96667 1.96667 3.33333 2.5 2.76667 3.06667C2.3 3.53333 1.9 4.06667 1.56667 4.6C1.26667 5.1 0.966667 5.6 0.766667 6.13333C0.566667 6.63333 0.4 7.13333 0.266667 7.66667C0.133333 8.16667 0.0666666 8.66667 0.0333333 9.2C-3.22859e-08 9.46667 0 9.73334 0 10H10V0C8.03333 0 6.23333 0.566667 4.66667 1.53333Z" fill="#428BC1"/>
<path d="M7.66668 0.333333L7.83334 0.833333H8.33334L7.93334 1.16667L8.06668 1.66667L7.66668 1.36667L7.26667 1.66667L7.40001 1.16667L7.00001 0.833333H7.50001L7.66668 0.333333ZM9.00001 2.33333L9.16668 2.83333H9.66668L9.26667 3.16667L9.40001 3.66667L9.00001 3.36667L8.60001 3.66667L8.73334 3.16667L8.33334 2.83333H8.83334L9.00001 2.33333ZM6.33334 2.33333L6.50001 2.83333H7.00001L6.60001 3.16667L6.73334 3.66667L6.33334 3.36667L5.93334 3.66667L6.06668 3.16667L5.66668 2.83333H6.16668L6.33334 2.33333ZM7.66668 4.33333L7.83334 4.83333H8.33334L7.93334 5.16667L8.06668 5.66667L7.66668 5.36667L7.26667 5.66667L7.40001 5.16667L7.00001 4.83333H7.50001L7.66668 4.33333ZM5.00001 4.33333L5.16668 4.83333H5.66668L5.26667 5.16667L5.40001 5.66667L5.00001 5.36667L4.60001 5.66667L4.73334 5.16667L4.33334 4.83333H4.83334L5.00001 4.33333ZM2.33334 4.33333L2.50001 4.83333H3.00001L2.60001 5.16667L2.73334 5.66667L2.33334 5.36667L1.93334 5.66667L2.06667 5.16667L1.66667 4.83333H2.16667L2.33334 4.33333ZM9.00001 6.33333L9.16668 6.83333H9.66668L9.26667 7.16667L9.40001 7.66667L9.00001 7.36667L8.60001 7.66667L8.73334 7.16667L8.33334 6.83333H8.83334L9.00001 6.33333ZM6.33334 6.33333L6.50001 6.83333H7.00001L6.60001 7.16667L6.73334 7.66667L6.33334 7.36667L5.93334 7.66667L6.06668 7.16667L5.66668 6.83333H6.16668L6.33334 6.33333ZM3.66668 6.33333L3.83334 6.83333H4.33334L3.93334 7.16667L4.06667 7.66667L3.66668 7.36667L3.26667 7.66667L3.40001 7.16667L3.00001 6.83333H3.50001L3.66668 6.33333ZM7.66668 8.33333L7.83334 8.83333H8.33334L7.93334 9.16667L8.06668 9.66667L7.66668 9.36667L7.26667 9.66667L7.40001 9.16667L7.00001 8.83333H7.50001L7.66668 8.33333ZM5.00001 8.33333L5.16668 8.83333H5.66668L5.26667 9.16667L5.40001 9.66667L5.00001 9.36667L4.60001 9.66667L4.73334 9.16667L4.33334 8.83333H4.83334L5.00001 8.33333ZM2.33334 8.33333L2.50001 8.83333H3.00001L2.60001 9.16667L2.73334 9.66667L2.33334 9.36667L1.93334 9.66667L2.06667 9.16667L1.66667 8.83333H2.16667L2.33334 8.33333ZM3.26667 3.66667L3.66668 3.36667L4.06667 3.66667L3.90001 3.16667L4.30001 2.83333H3.80001L3.66668 2.33333L3.50001 2.83333H3.03334L3.43334 3.13333L3.26667 3.66667ZM0.600008 7.66667L1.00001 7.36667L1.40001 7.66667L1.23334 7.16667L1.63334 6.83333H1.16667L1.00001 6.33333L0.833341 6.83333H0.500008C0.500008 6.86667 0.466675 6.9 0.466675 6.93333L0.733341 7.13333L0.600008 7.66667Z" fill="white"/>
</svg>
