<svg width="48" height="51" viewBox="0 0 48 51" fill="none" xmlns="http://www.w3.org/2000/svg">
<g clip-path="url(#clip0_3926_2560)">
<path fill-rule="evenodd" clip-rule="evenodd" d="M24.8965 4.04541H7.42484C5.8141 4.04541 4.5127 5.3623 4.5127 6.98677V36.8613C4.5127 38.4876 5.81651 39.8027 7.42484 39.8027H42.0934C43.7041 39.8027 45.0055 38.4858 45.0055 36.8613V24.3395C44.726 24.4295 44.428 24.4781 44.1186 24.4781H27.6707C26.0627 24.4781 24.7591 23.1561 24.7591 21.5398V4.94048C24.7591 4.62837 24.8073 4.32762 24.8965 4.04541Z" fill="#2F1893" stroke="white" stroke-width="2" stroke-linecap="round" stroke-linejoin="round"/>
<path d="M20.225 8.13232H9.04686C8.77909 8.13232 8.56201 8.35188 8.56201 8.62271V19.9016C8.56201 20.1724 8.77909 20.392 9.04686 20.392H20.225C20.4928 20.392 20.7099 20.1724 20.7099 19.9016V8.62271C20.7099 8.35188 20.4928 8.13232 20.225 8.13232Z" fill="#2F1893" stroke="white" stroke-width="2" stroke-linecap="round" stroke-linejoin="round"/>
<path fill-rule="evenodd" clip-rule="evenodd" d="M24.7593 4.94078C24.7593 3.31798 26.0611 2.00244 27.6708 2.00244H44.1188C45.7268 2.00244 47.0303 3.32451 47.0303 4.94078V21.5401C47.0303 23.1629 45.7285 24.4784 44.1188 24.4784H27.6708C26.0628 24.4784 24.7593 23.1564 24.7593 21.5401V4.94078Z" fill="#2F1893" stroke="white" stroke-width="2" stroke-linecap="round" stroke-linejoin="round"/>
<path fill-rule="evenodd" clip-rule="evenodd" d="M36.0386 20.7594C40.0552 20.7594 43.3113 17.4661 43.3113 13.4036C43.3113 9.34115 40.0552 6.04785 36.0386 6.04785C32.022 6.04785 28.7659 9.34115 28.7659 13.4036C28.7659 17.4661 32.022 20.7594 36.0386 20.7594Z" fill="#2F1893" stroke="white" stroke-width="2" stroke-linecap="round" stroke-linejoin="round"/>
<path fill-rule="evenodd" clip-rule="evenodd" d="M8.56201 2.45057C8.56201 1.63893 9.21337 0.980957 10.0125 0.980957H12.1732C12.9742 0.980957 13.6236 1.63846 13.6236 2.45057V4.04586H8.56201V2.45057Z" fill="#2F1893" stroke="white" stroke-width="2" stroke-linecap="round" stroke-linejoin="round"/>
<path d="M14.6734 33.101C16.3507 33.101 17.7104 31.7288 17.7104 30.0361C17.7104 28.3434 16.3507 26.9712 14.6734 26.9712C12.9962 26.9712 11.6365 28.3434 11.6365 30.0361C11.6365 31.7288 12.9962 33.101 14.6734 33.101Z" fill="#EEEEEE" stroke="white" stroke-width="2" stroke-linecap="round" stroke-linejoin="round"/>
<path d="M29.8207 39.8027H19.6975V44.9109H29.8207V39.8027Z" fill="#2F1893" stroke="white" stroke-width="2" stroke-linecap="round" stroke-linejoin="round"/>
<path d="M32.3516 44.9111H17.1667V50.0193H32.3516V44.9111Z" fill="#2F1893" stroke="white" stroke-width="2" stroke-linecap="round" stroke-linejoin="round"/>
<path fill-rule="evenodd" clip-rule="evenodd" d="M19.4446 44.9111H5.01904H19.4446Z" fill="#E1F2FA"/>
<path d="M19.4446 44.9111H5.01904" stroke="white" stroke-width="2" stroke-linecap="round" stroke-linejoin="round"/>
<path d="M4.51285 43.638C4.51285 42.6484 3.71969 41.8462 2.74129 41.8462C1.76288 41.8462 0.969727 42.6484 0.969727 43.638V46.1842C0.969727 47.1738 1.76288 47.976 2.74129 47.976C3.71969 47.976 4.51285 47.1738 4.51285 46.1842V43.638Z" fill="#2F1893" stroke="white" stroke-width="2" stroke-linecap="round" stroke-linejoin="round"/>
<path fill-rule="evenodd" clip-rule="evenodd" d="M32 32.3652H39.7576H32Z" fill="#E1F2FA"/>
<path d="M32 32.3652H39.7576" stroke="white" stroke-width="2" stroke-linecap="round" stroke-linejoin="round"/>
</g>
<defs>
<clipPath id="clip0_3926_2560">
<rect width="48" height="51.0001" fill="white"/>
</clipPath>
</defs>
</svg>
