<svg width="32" height="52" viewBox="0 0 32 52" fill="none" xmlns="http://www.w3.org/2000/svg">
<g clip-path="url(#clip0_3926_2524)">
<path d="M29.5 1H2.5C1.67157 1 1 1.67157 1 2.5V49.5C1 50.3284 1.67157 51 2.5 51H29.5C30.3284 51 31 50.3284 31 49.5V2.5C31 1.67157 30.3284 1 29.5 1Z" fill="#2F1893" stroke="white" stroke-width="2" stroke-linecap="round" stroke-linejoin="round"/>
<path fill-rule="evenodd" clip-rule="evenodd" d="M31 43V49.5036C31 50.33 30.3313 51 29.502 51H2.49797C1.67066 51 1 50.331 1 49.5036V43H31Z" fill="#2F1893" stroke="white" stroke-width="2" stroke-linecap="round" stroke-linejoin="round"/>
<path fill-rule="evenodd" clip-rule="evenodd" d="M31 9V2.71017C31 1.76458 30.3293 1 29.502 1H2.49797C1.66865 1 1 1.76567 1 2.71017V9H31Z" fill="#2F1893" stroke="white" stroke-width="2" stroke-linecap="round" stroke-linejoin="round"/>
<path fill-rule="evenodd" clip-rule="evenodd" d="M16 48.5C16.8284 48.5 17.5 47.8284 17.5 47C17.5 46.1716 16.8284 45.5 16 45.5C15.1716 45.5 14.5 46.1716 14.5 47C14.5 47.8284 15.1716 48.5 16 48.5Z" fill="white" stroke="white" stroke-width="2" stroke-linecap="round" stroke-linejoin="round"/>
<path fill-rule="evenodd" clip-rule="evenodd" d="M14.5 5H17.5H14.5Z" fill="white"/>
<path d="M14.5 5H17.5" stroke="white" stroke-width="2" stroke-linecap="round" stroke-linejoin="round"/>
</g>
<defs>
<clipPath id="clip0_3926_2524">
<rect width="32" height="52" fill="white"/>
</clipPath>
</defs>
</svg>
