<svg width="72" height="51" viewBox="0 0 72 51" fill="none" xmlns="http://www.w3.org/2000/svg">
<g clip-path="url(#clip0_3926_2572)">
<path fill-rule="evenodd" clip-rule="evenodd" d="M35.9999 15.1622H3.45646C2.31084 15.1622 1.38452 16.0899 1.38452 17.2343V42.7252C1.38452 43.8779 2.31216 44.7973 3.45646 44.7973H68.5434C69.689 44.7973 70.6153 43.8696 70.6153 42.7252V17.2343C70.6153 16.0816 69.6877 15.1622 68.5434 15.1622H63.6922C63.6922 7.54963 57.4931 1.37842 49.8461 1.37842C42.199 1.37842 35.9999 7.54963 35.9999 15.1622Z" fill="#2F1893" stroke="white" stroke-width="2" stroke-linecap="round" stroke-linejoin="round"/>
<path fill-rule="evenodd" clip-rule="evenodd" d="M33.2308 24.8105H15.9231H33.2308Z" fill="#E1F2FA"/>
<path d="M33.2308 24.8105H15.9231" stroke="white" stroke-width="2" stroke-linecap="round" stroke-linejoin="round"/>
<path fill-rule="evenodd" clip-rule="evenodd" d="M33.2308 29.6353H15.9231H33.2308Z" fill="#E1F2FA"/>
<path d="M33.2308 29.6353H15.9231" stroke="white" stroke-width="2" stroke-linecap="round" stroke-linejoin="round"/>
<path fill-rule="evenodd" clip-rule="evenodd" d="M33.2308 34.4595H15.9231H33.2308Z" fill="#E1F2FA"/>
<path d="M33.2308 34.4595H15.9231" stroke="white" stroke-width="2" stroke-linecap="round" stroke-linejoin="round"/>
<path d="M8.00004 20.6755C8.00004 21.2608 7.52214 21.743 6.92311 21.743C6.32409 21.743 5.84619 21.2608 5.84619 20.6755C5.84619 20.0901 6.32409 19.6079 6.92311 19.6079C7.52214 19.6079 8.00004 20.0901 8.00004 20.6755Z" fill="#2F1893" stroke="white" stroke-width="2"/>
<path d="M65.4615 20.6755C65.4615 21.2608 64.9836 21.743 64.3845 21.743C63.7855 21.743 63.3076 21.2608 63.3076 20.6755C63.3076 20.0901 63.7855 19.6079 64.3845 19.6079C64.9836 19.6079 65.4615 20.0901 65.4615 20.6755Z" fill="#2F1893" stroke="white" stroke-width="2"/>
<path fill-rule="evenodd" clip-rule="evenodd" d="M49.8462 24.1216C54.8168 24.1216 58.8462 20.1103 58.8462 15.1621C58.8462 10.2139 54.8168 6.20264 49.8462 6.20264C44.8756 6.20264 40.8462 10.2139 40.8462 15.1621C40.8462 20.1103 44.8756 24.1216 49.8462 24.1216Z" fill="#2F1893" stroke="white" stroke-width="2" stroke-linecap="round" stroke-linejoin="round"/>
<path fill-rule="evenodd" clip-rule="evenodd" d="M49.1539 11.0269C47.8445 11.0269 45.6924 13.0682 45.6924 14.4728L49.1539 11.0269Z" fill="#E1F2FA"/>
<path d="M49.1539 11.0269C47.8445 11.0269 45.6924 13.0682 45.6924 14.4728" stroke="white" stroke-width="2" stroke-linecap="round" stroke-linejoin="round"/>
<path fill-rule="evenodd" clip-rule="evenodd" d="M8.30762 45.4863H15.2307V47.5539C15.2307 48.6958 14.297 49.6215 13.1535 49.6215H10.3848C9.23759 49.6215 8.30762 48.6935 8.30762 47.5539V45.4863Z" fill="#2F1893" stroke="white" stroke-width="2" stroke-linecap="round" stroke-linejoin="round"/>
<path fill-rule="evenodd" clip-rule="evenodd" d="M56.7693 45.4863H63.6924V47.5539C63.6924 48.6958 62.7587 49.6215 61.6152 49.6215H58.8464C57.6993 49.6215 56.7693 48.6935 56.7693 47.5539V45.4863Z" fill="#2F1893" stroke="white" stroke-width="2" stroke-linecap="round" stroke-linejoin="round"/>
</g>
<defs>
<clipPath id="clip0_3926_2572">
<rect width="72" height="51" fill="white"/>
</clipPath>
</defs>
</svg>
